<mxfile host="app.diagrams.net" agent="Mozilla/5.0 (Windows NT 10.0; Win64; x64) AppleWebKit/537.36 (KHTML, like Gecko) Chrome/131.0.0.0 Safari/537.36" version="25.0.3">
  <diagram name="Страница — 1" id="8BZ5iSr8LVM4_eHzo12L">
    <mxGraphModel grid="1" page="1" gridSize="10" guides="1" tooltips="1" connect="1" arrows="1" fold="1" pageScale="1" pageWidth="827" pageHeight="1169" math="0" shadow="0">
      <root>
        <mxCell id="0" />
        <mxCell id="1" parent="0" />
        <mxCell id="7jGWfY5OlFuIVDvxaabG-9" style="edgeStyle=orthogonalEdgeStyle;rounded=0;orthogonalLoop=1;jettySize=auto;html=1;entryX=0;entryY=0.5;entryDx=0;entryDy=0;" edge="1" parent="1" source="7jGWfY5OlFuIVDvxaabG-1" target="7jGWfY5OlFuIVDvxaabG-5">
          <mxGeometry relative="1" as="geometry">
            <mxPoint x="410" y="210" as="targetPoint" />
          </mxGeometry>
        </mxCell>
        <mxCell id="7jGWfY5OlFuIVDvxaabG-1" value="Збір перевірених документів" style="rounded=0;whiteSpace=wrap;html=1;" vertex="1" parent="1">
          <mxGeometry x="255" y="180" width="120" height="60" as="geometry" />
        </mxCell>
        <mxCell id="7jGWfY5OlFuIVDvxaabG-6" style="edgeStyle=orthogonalEdgeStyle;rounded=0;orthogonalLoop=1;jettySize=auto;html=1;entryX=0;entryY=0.5;entryDx=0;entryDy=0;" edge="1" parent="1" source="7jGWfY5OlFuIVDvxaabG-2" target="7jGWfY5OlFuIVDvxaabG-1">
          <mxGeometry relative="1" as="geometry" />
        </mxCell>
        <mxCell id="7jGWfY5OlFuIVDvxaabG-2" value="Перевірені документи (атестат, сертифікати, медична довідка тощо)" style="text;whiteSpace=wrap;align=center;" vertex="1" parent="1">
          <mxGeometry x="40" y="190" width="180" height="40" as="geometry" />
        </mxCell>
        <mxCell id="7jGWfY5OlFuIVDvxaabG-3" value="Вимоги до переліку документів" style="text;whiteSpace=wrap;align=center;" vertex="1" parent="1">
          <mxGeometry x="230" y="100" width="170" height="40" as="geometry" />
        </mxCell>
        <mxCell id="7jGWfY5OlFuIVDvxaabG-8" style="edgeStyle=orthogonalEdgeStyle;rounded=0;orthogonalLoop=1;jettySize=auto;html=1;entryX=0.5;entryY=1;entryDx=0;entryDy=0;" edge="1" parent="1" source="7jGWfY5OlFuIVDvxaabG-4" target="7jGWfY5OlFuIVDvxaabG-1">
          <mxGeometry relative="1" as="geometry" />
        </mxCell>
        <mxCell id="7jGWfY5OlFuIVDvxaabG-4" value="Абітурієнт, електронні системи" style="text;whiteSpace=wrap;" vertex="1" parent="1">
          <mxGeometry x="250" y="280" width="130" height="40" as="geometry" />
        </mxCell>
        <mxCell id="7jGWfY5OlFuIVDvxaabG-16" style="edgeStyle=orthogonalEdgeStyle;rounded=0;orthogonalLoop=1;jettySize=auto;html=1;entryX=0;entryY=0.5;entryDx=0;entryDy=0;" edge="1" parent="1" source="7jGWfY5OlFuIVDvxaabG-5" target="7jGWfY5OlFuIVDvxaabG-10">
          <mxGeometry relative="1" as="geometry" />
        </mxCell>
        <mxCell id="7jGWfY5OlFuIVDvxaabG-5" value="Зібраний комплект документів" style="text;whiteSpace=wrap;" vertex="1" parent="1">
          <mxGeometry x="400" y="195" width="176" height="30" as="geometry" />
        </mxCell>
        <mxCell id="7jGWfY5OlFuIVDvxaabG-7" style="edgeStyle=orthogonalEdgeStyle;rounded=0;orthogonalLoop=1;jettySize=auto;html=1;entryX=0.5;entryY=0;entryDx=0;entryDy=0;" edge="1" parent="1" source="7jGWfY5OlFuIVDvxaabG-3" target="7jGWfY5OlFuIVDvxaabG-1">
          <mxGeometry relative="1" as="geometry" />
        </mxCell>
        <mxCell id="7jGWfY5OlFuIVDvxaabG-10" value="Упорядкування документів за вимогами ВНЗ" style="rounded=0;whiteSpace=wrap;html=1;" vertex="1" parent="1">
          <mxGeometry x="520" y="270" width="120" height="60" as="geometry" />
        </mxCell>
        <mxCell id="7jGWfY5OlFuIVDvxaabG-11" value="Порядок подання документів (вимоги приймальної комісії)" style="text;whiteSpace=wrap;" vertex="1" parent="1">
          <mxGeometry x="630" y="190" width="170" height="40" as="geometry" />
        </mxCell>
        <mxCell id="7jGWfY5OlFuIVDvxaabG-12" value="Абітурієнт " style="text;whiteSpace=wrap;" vertex="1" parent="1">
          <mxGeometry x="510" y="370" width="50" height="40" as="geometry" />
        </mxCell>
        <mxCell id="7jGWfY5OlFuIVDvxaabG-13" value="&lt;span style=&quot;text-align: left; text-wrap-mode: wrap;&quot;&gt;Шаблони оформлення&lt;/span&gt;" style="text;html=1;align=center;verticalAlign=middle;resizable=0;points=[];autosize=1;strokeColor=none;fillColor=none;" vertex="1" parent="1">
          <mxGeometry x="550" y="370" width="150" height="30" as="geometry" />
        </mxCell>
        <mxCell id="7jGWfY5OlFuIVDvxaabG-27" style="edgeStyle=orthogonalEdgeStyle;rounded=0;orthogonalLoop=1;jettySize=auto;html=1;entryX=0.5;entryY=0;entryDx=0;entryDy=0;" edge="1" parent="1" source="7jGWfY5OlFuIVDvxaabG-15" target="7jGWfY5OlFuIVDvxaabG-23">
          <mxGeometry relative="1" as="geometry" />
        </mxCell>
        <mxCell id="7jGWfY5OlFuIVDvxaabG-35" style="edgeStyle=orthogonalEdgeStyle;rounded=0;orthogonalLoop=1;jettySize=auto;html=1;entryX=0;entryY=0.5;entryDx=0;entryDy=0;" edge="1" parent="1" source="7jGWfY5OlFuIVDvxaabG-15" target="7jGWfY5OlFuIVDvxaabG-31">
          <mxGeometry relative="1" as="geometry" />
        </mxCell>
        <mxCell id="7jGWfY5OlFuIVDvxaabG-15" value="Упорядкований комплект документів" style="text;whiteSpace=wrap;" vertex="1" parent="1">
          <mxGeometry x="670" y="285" width="150" height="30" as="geometry" />
        </mxCell>
        <mxCell id="7jGWfY5OlFuIVDvxaabG-17" style="edgeStyle=orthogonalEdgeStyle;rounded=0;orthogonalLoop=1;jettySize=auto;html=1;entryX=0.575;entryY=0;entryDx=0;entryDy=0;entryPerimeter=0;" edge="1" parent="1" source="7jGWfY5OlFuIVDvxaabG-11" target="7jGWfY5OlFuIVDvxaabG-10">
          <mxGeometry relative="1" as="geometry" />
        </mxCell>
        <mxCell id="7jGWfY5OlFuIVDvxaabG-18" style="edgeStyle=orthogonalEdgeStyle;rounded=0;orthogonalLoop=1;jettySize=auto;html=1;entryX=0.12;entryY=1.001;entryDx=0;entryDy=0;entryPerimeter=0;" edge="1" parent="1" source="7jGWfY5OlFuIVDvxaabG-12" target="7jGWfY5OlFuIVDvxaabG-10">
          <mxGeometry relative="1" as="geometry" />
        </mxCell>
        <mxCell id="7jGWfY5OlFuIVDvxaabG-20" style="edgeStyle=orthogonalEdgeStyle;rounded=0;orthogonalLoop=1;jettySize=auto;html=1;entryX=0.875;entryY=1.038;entryDx=0;entryDy=0;entryPerimeter=0;" edge="1" parent="1" source="7jGWfY5OlFuIVDvxaabG-13" target="7jGWfY5OlFuIVDvxaabG-10">
          <mxGeometry relative="1" as="geometry" />
        </mxCell>
        <mxCell id="7jGWfY5OlFuIVDvxaabG-21" style="edgeStyle=orthogonalEdgeStyle;rounded=0;orthogonalLoop=1;jettySize=auto;html=1;entryX=-0.008;entryY=0.507;entryDx=0;entryDy=0;entryPerimeter=0;" edge="1" parent="1" source="7jGWfY5OlFuIVDvxaabG-10" target="7jGWfY5OlFuIVDvxaabG-15">
          <mxGeometry relative="1" as="geometry" />
        </mxCell>
        <mxCell id="7jGWfY5OlFuIVDvxaabG-30" style="edgeStyle=orthogonalEdgeStyle;rounded=0;orthogonalLoop=1;jettySize=auto;html=1;entryX=0;entryY=0.5;entryDx=0;entryDy=0;" edge="1" parent="1" source="7jGWfY5OlFuIVDvxaabG-23" target="7jGWfY5OlFuIVDvxaabG-26">
          <mxGeometry relative="1" as="geometry" />
        </mxCell>
        <mxCell id="7jGWfY5OlFuIVDvxaabG-23" value="Створення копій документів" style="rounded=0;whiteSpace=wrap;html=1;" vertex="1" parent="1">
          <mxGeometry x="707" y="420" width="120" height="60" as="geometry" />
        </mxCell>
        <mxCell id="7jGWfY5OlFuIVDvxaabG-28" style="edgeStyle=orthogonalEdgeStyle;rounded=0;orthogonalLoop=1;jettySize=auto;html=1;entryX=0;entryY=0.5;entryDx=0;entryDy=0;" edge="1" parent="1" source="7jGWfY5OlFuIVDvxaabG-24" target="7jGWfY5OlFuIVDvxaabG-23">
          <mxGeometry relative="1" as="geometry" />
        </mxCell>
        <mxCell id="7jGWfY5OlFuIVDvxaabG-24" value="Вимога щодо кількості копій та форматів" style="text;whiteSpace=wrap;" vertex="1" parent="1">
          <mxGeometry x="530" y="430" width="140" height="40" as="geometry" />
        </mxCell>
        <mxCell id="7jGWfY5OlFuIVDvxaabG-25" value="Сканери, принтери" style="text;whiteSpace=wrap;" vertex="1" parent="1">
          <mxGeometry x="707" y="520" width="140" height="40" as="geometry" />
        </mxCell>
        <mxCell id="7jGWfY5OlFuIVDvxaabG-47" style="edgeStyle=orthogonalEdgeStyle;rounded=0;orthogonalLoop=1;jettySize=auto;html=1;entryX=0;entryY=0.5;entryDx=0;entryDy=0;" edge="1" parent="1" source="7jGWfY5OlFuIVDvxaabG-26" target="7jGWfY5OlFuIVDvxaabG-41">
          <mxGeometry relative="1" as="geometry" />
        </mxCell>
        <mxCell id="7jGWfY5OlFuIVDvxaabG-26" value="Оригінали та копії документів" style="text;whiteSpace=wrap;" vertex="1" parent="1">
          <mxGeometry x="870" y="435" width="170" height="30" as="geometry" />
        </mxCell>
        <mxCell id="7jGWfY5OlFuIVDvxaabG-29" style="edgeStyle=orthogonalEdgeStyle;rounded=0;orthogonalLoop=1;jettySize=auto;html=1;entryX=0.583;entryY=1;entryDx=0;entryDy=0;entryPerimeter=0;" edge="1" parent="1" source="7jGWfY5OlFuIVDvxaabG-25" target="7jGWfY5OlFuIVDvxaabG-23">
          <mxGeometry relative="1" as="geometry" />
        </mxCell>
        <mxCell id="7jGWfY5OlFuIVDvxaabG-31" value="Підготовка супровідного листа або заяви" style="rounded=0;whiteSpace=wrap;html=1;" vertex="1" parent="1">
          <mxGeometry x="850" y="270" width="120" height="60" as="geometry" />
        </mxCell>
        <mxCell id="7jGWfY5OlFuIVDvxaabG-32" value="Форма заяви ВНЗ або супровідного листа" style="text;whiteSpace=wrap;align=center;" vertex="1" parent="1">
          <mxGeometry x="840" y="200" width="155" height="40" as="geometry" />
        </mxCell>
        <mxCell id="7jGWfY5OlFuIVDvxaabG-33" value="Абітурієнт, шаблон заяви" style="text;whiteSpace=wrap;align=center;" vertex="1" parent="1">
          <mxGeometry x="832.5" y="350" width="170" height="30" as="geometry" />
        </mxCell>
        <mxCell id="7jGWfY5OlFuIVDvxaabG-46" style="edgeStyle=orthogonalEdgeStyle;rounded=0;orthogonalLoop=1;jettySize=auto;html=1;entryX=0.5;entryY=0;entryDx=0;entryDy=0;" edge="1" parent="1" source="7jGWfY5OlFuIVDvxaabG-34" target="7jGWfY5OlFuIVDvxaabG-41">
          <mxGeometry relative="1" as="geometry" />
        </mxCell>
        <mxCell id="7jGWfY5OlFuIVDvxaabG-34" value="Супровідний лист або заява" style="text;whiteSpace=wrap;" vertex="1" parent="1">
          <mxGeometry x="1040" y="285" width="190" height="35" as="geometry" />
        </mxCell>
        <mxCell id="7jGWfY5OlFuIVDvxaabG-38" style="edgeStyle=orthogonalEdgeStyle;rounded=0;orthogonalLoop=1;jettySize=auto;html=1;entryX=0.563;entryY=0;entryDx=0;entryDy=0;entryPerimeter=0;" edge="1" parent="1" source="7jGWfY5OlFuIVDvxaabG-32" target="7jGWfY5OlFuIVDvxaabG-31">
          <mxGeometry relative="1" as="geometry" />
        </mxCell>
        <mxCell id="7jGWfY5OlFuIVDvxaabG-39" style="edgeStyle=orthogonalEdgeStyle;rounded=0;orthogonalLoop=1;jettySize=auto;html=1;entryX=0.563;entryY=1;entryDx=0;entryDy=0;entryPerimeter=0;" edge="1" parent="1" source="7jGWfY5OlFuIVDvxaabG-33" target="7jGWfY5OlFuIVDvxaabG-31">
          <mxGeometry relative="1" as="geometry" />
        </mxCell>
        <mxCell id="7jGWfY5OlFuIVDvxaabG-40" style="edgeStyle=orthogonalEdgeStyle;rounded=0;orthogonalLoop=1;jettySize=auto;html=1;entryX=-0.01;entryY=0.42;entryDx=0;entryDy=0;entryPerimeter=0;" edge="1" parent="1" source="7jGWfY5OlFuIVDvxaabG-31" target="7jGWfY5OlFuIVDvxaabG-34">
          <mxGeometry relative="1" as="geometry" />
        </mxCell>
        <mxCell id="7jGWfY5OlFuIVDvxaabG-51" style="edgeStyle=orthogonalEdgeStyle;rounded=0;orthogonalLoop=1;jettySize=auto;html=1;entryX=0;entryY=0.5;entryDx=0;entryDy=0;" edge="1" parent="1" source="7jGWfY5OlFuIVDvxaabG-41" target="7jGWfY5OlFuIVDvxaabG-45">
          <mxGeometry relative="1" as="geometry" />
        </mxCell>
        <mxCell id="7jGWfY5OlFuIVDvxaabG-41" value="Остаточна перевірка комплекту документів" style="rounded=0;whiteSpace=wrap;html=1;" vertex="1" parent="1">
          <mxGeometry x="1075" y="420" width="120" height="60" as="geometry" />
        </mxCell>
        <mxCell id="7jGWfY5OlFuIVDvxaabG-42" value="Контрольний список вимог ВНЗ" style="text;whiteSpace=wrap;align=center;" vertex="1" parent="1">
          <mxGeometry x="1030" y="520" width="100" height="40" as="geometry" />
        </mxCell>
        <mxCell id="7jGWfY5OlFuIVDvxaabG-44" value="Абітурієнт, приймальна комісія" style="text;whiteSpace=wrap;align=center;" vertex="1" parent="1">
          <mxGeometry x="1141" y="520" width="100" height="40" as="geometry" />
        </mxCell>
        <mxCell id="7jGWfY5OlFuIVDvxaabG-45" value="Повністю готовий комплект документів для подання" style="text;whiteSpace=wrap;" vertex="1" parent="1">
          <mxGeometry x="1241" y="430" width="210" height="40" as="geometry" />
        </mxCell>
        <mxCell id="7jGWfY5OlFuIVDvxaabG-48" style="edgeStyle=orthogonalEdgeStyle;rounded=0;orthogonalLoop=1;jettySize=auto;html=1;entryX=0.25;entryY=1;entryDx=0;entryDy=0;" edge="1" parent="1" source="7jGWfY5OlFuIVDvxaabG-42" target="7jGWfY5OlFuIVDvxaabG-41">
          <mxGeometry relative="1" as="geometry" />
        </mxCell>
        <mxCell id="7jGWfY5OlFuIVDvxaabG-50" style="edgeStyle=orthogonalEdgeStyle;rounded=0;orthogonalLoop=1;jettySize=auto;html=1;entryX=0.709;entryY=0.961;entryDx=0;entryDy=0;entryPerimeter=0;" edge="1" parent="1" source="7jGWfY5OlFuIVDvxaabG-44" target="7jGWfY5OlFuIVDvxaabG-41">
          <mxGeometry relative="1" as="geometry" />
        </mxCell>
        <mxCell id="YSL_mkoQ-HmNEFoZ1bN8-1" value="&lt;font style=&quot;font-size: 8px;&quot;&gt;A1.3.1&lt;/font&gt;" style="text;html=1;align=center;verticalAlign=middle;whiteSpace=wrap;rounded=0;" vertex="1" parent="1">
          <mxGeometry x="255" y="225" width="25" height="15" as="geometry" />
        </mxCell>
        <mxCell id="YSL_mkoQ-HmNEFoZ1bN8-2" value="&lt;font style=&quot;font-size: 8px;&quot;&gt;A1.3.2&lt;/font&gt;" style="text;html=1;align=center;verticalAlign=middle;whiteSpace=wrap;rounded=0;" vertex="1" parent="1">
          <mxGeometry x="520" y="315" width="25" height="15" as="geometry" />
        </mxCell>
        <mxCell id="YSL_mkoQ-HmNEFoZ1bN8-3" value="&lt;font style=&quot;font-size: 8px;&quot;&gt;A1.3.3&lt;/font&gt;" style="text;html=1;align=center;verticalAlign=middle;whiteSpace=wrap;rounded=0;" vertex="1" parent="1">
          <mxGeometry x="707" y="465" width="25" height="15" as="geometry" />
        </mxCell>
        <mxCell id="YSL_mkoQ-HmNEFoZ1bN8-4" value="&lt;font style=&quot;font-size: 8px;&quot;&gt;A1.3.4&lt;/font&gt;" style="text;html=1;align=center;verticalAlign=middle;whiteSpace=wrap;rounded=0;" vertex="1" parent="1">
          <mxGeometry x="850" y="315" width="25" height="15" as="geometry" />
        </mxCell>
        <mxCell id="YSL_mkoQ-HmNEFoZ1bN8-5" value="&lt;font style=&quot;font-size: 8px;&quot;&gt;A1.3.5&lt;/font&gt;" style="text;html=1;align=center;verticalAlign=middle;whiteSpace=wrap;rounded=0;" vertex="1" parent="1">
          <mxGeometry x="1075" y="465" width="25" height="15" as="geometry" />
        </mxCell>
      </root>
    </mxGraphModel>
  </diagram>
</mxfile>
